<svg width="24" height="24" viewBox="0 0 24 24" fill="none" xmlns="http://www.w3.org/2000/svg">
<path d="M12 1.125C9 1.125 7.5 3.375 7.5 4.125C5.25 3.375 2.25 4.125 0.75 5.625C0.75 13.875 6.75 22.875 12 22.875C17.25 22.875 23.25 13.875 23.25 5.625C21.75 4.125 18.75 3.375 16.5 4.125C16.5 3.375 15 1.125 12 1.125ZM12 2.20312C13.0547 2.20312 13.9219 3.06844 13.9219 4.125C13.9219 5.17969 13.0547 6.04688 12 6.04688C10.9453 6.04688 10.0781 5.17969 10.0781 4.125C10.0781 3.06844 10.9453 2.20312 12 2.20312ZM12 3.04688C11.4 3.04688 10.9219 3.52453 10.9219 4.125C10.9219 4.725 11.4 5.20312 12 5.20312C12.6 5.20312 13.0781 4.725 13.0781 4.125C13.0781 3.52453 12.6 3.04688 12 3.04688ZM7.46719 4.28156L8.08125 4.73906C9.26719 5.625 10.0453 6.33281 11.4562 7.13437C11.6344 7.23281 11.7703 7.42031 11.8172 7.60312C11.8594 7.79062 11.8359 7.95938 11.7891 8.11406C11.6953 8.42344 11.5125 8.7 11.2922 8.95781C11.0719 9.21563 10.8141 9.44531 10.5375 9.60938C10.2656 9.77344 9.94687 9.92812 9.57187 9.75937C8.54062 9.28125 7.93125 8.51719 7.63594 7.66875C7.34062 6.82031 7.33594 5.90625 7.40625 5.04375L7.46719 4.28156ZM16.5328 4.28156L16.5938 5.04375C16.6641 5.90625 16.6594 6.82031 16.3641 7.66875C16.0688 8.51719 15.4594 9.28125 14.4281 9.75937C14.0531 9.92812 13.7344 9.77344 13.4625 9.60938C13.1859 9.44531 12.9281 9.21563 12.7078 8.95781C12.4875 8.7 12.3047 8.42344 12.2109 8.11406C12.1641 7.95938 12.1406 7.79062 12.1828 7.60312C12.2297 7.42031 12.3656 7.23281 12.5438 7.13437C13.9547 6.33281 14.7328 5.625 15.9188 4.73906L16.5328 4.28156ZM8.22187 5.91094C8.22656 6.43594 8.27812 6.94687 8.43281 7.39219C8.6625 8.04844 9.075 8.5875 9.9 8.97656C9.87656 8.9625 9.96563 8.96719 10.1063 8.8875C10.275 8.78438 10.4812 8.60156 10.65 8.40469C10.8187 8.2125 10.9453 7.99219 10.9781 7.875C10.9922 7.84219 10.9875 7.84688 10.9875 7.83281C10.8187 7.73438 10.6547 7.64062 10.5 7.54219C10.4946 7.7337 10.4527 7.9138 10.383 8.04545C10.3132 8.1771 10.2209 8.2503 10.125 8.25C10.0255 8.25 9.93016 8.17098 9.85983 8.03033C9.78951 7.88968 9.75 7.69891 9.75 7.5C9.75064 7.35674 9.77179 7.21685 9.81094 7.09687C9.23438 6.70312 8.7375 6.30937 8.22187 5.91094ZM9.9 8.97656C9.90469 8.98125 9.91406 8.98594 9.92813 8.99063L9.9 8.97656ZM15.7781 5.91094C15.2625 6.30937 14.7656 6.70312 14.1891 7.09687C14.2282 7.21685 14.2494 7.35674 14.25 7.5C14.25 7.69891 14.2105 7.88968 14.1402 8.03033C14.0698 8.17098 13.9745 8.25 13.875 8.25C13.7791 8.2503 13.6868 8.1771 13.617 8.04545C13.5473 7.9138 13.5054 7.7337 13.5 7.54219C13.3453 7.64062 13.1813 7.73438 13.0125 7.83281C13.0125 7.84688 13.0078 7.84219 13.0219 7.875C13.0547 7.99219 13.1812 8.2125 13.35 8.40469C13.5187 8.60156 13.725 8.78438 13.8937 8.8875C14.0344 8.96719 14.1234 8.9625 14.1 8.97656C14.925 8.5875 15.3375 8.04844 15.5672 7.39219C15.7219 6.94687 15.7734 6.43594 15.7781 5.91094ZM14.1 8.97656L14.0719 8.99063C14.0859 8.98594 14.0953 8.98125 14.1 8.97656ZM5.49375 8.26875L7.12031 9.82031L6.53906 10.4297L4.9125 8.87812L5.49375 8.26875ZM18.5062 8.26875L19.0875 8.87812L17.4609 10.4297L16.8797 9.82031L18.5062 8.26875ZM4.39406 9.42188L6.01875 10.9734L5.4375 11.5828L3.81141 10.0312L4.39406 9.42188ZM19.6078 9.42188L20.1891 10.0312L18.5625 11.5828L17.9813 10.9734L19.6078 9.42188ZM12 10.5469C15.0844 10.5469 17.5781 13.0406 17.5781 16.125C17.5781 19.2094 15.0844 21.7031 12 21.7031C8.91562 21.7031 6.42188 19.2094 6.42188 16.125C6.42188 13.0406 8.91562 10.5469 12 10.5469ZM3.29344 10.5703L4.92188 12.1266L4.33687 12.7359L2.71031 11.1797L3.29344 10.5703ZM20.7094 10.5703L21.2906 11.1797L19.6641 12.7359L19.0828 12.1266L20.7094 10.5703ZM13.4859 11.4656C12.375 11.4844 10.5234 12.0422 10.5 13.125C10.4906 13.6125 10.6359 14.1094 10.8656 14.5781C11.1844 14.3438 11.5781 14.2031 12 14.2031C12.5531 14.2031 13.05 14.4422 13.4016 14.8172C14.2922 13.65 14.7938 12.1922 14.25 11.625C14.1562 11.5266 13.9266 11.4703 13.6219 11.4656H13.4859ZM12 15.0469C11.4 15.0469 10.9219 15.525 10.9219 16.125C10.9219 16.725 11.4 17.2031 12 17.2031C12.6 17.2031 13.0781 16.725 13.0781 16.125C13.0781 15.525 12.6 15.0469 12 15.0469ZM9.39375 15.5062C8.21719 15.4922 7.1625 15.8016 6.97969 16.425C6.80625 17.0297 8.88281 19.6125 10.1484 18.9188C10.575 18.6891 10.9359 18.3141 11.2266 17.8828C10.5516 17.5828 10.0781 16.9031 10.0781 16.125C10.0781 15.9281 10.1063 15.7406 10.1625 15.5625C9.90469 15.5297 9.64687 15.5109 9.39375 15.5062ZM13.9078 15.9141C13.9172 15.9844 13.9219 16.0547 13.9219 16.125C13.9219 17.0297 13.2797 17.7984 12.4313 17.9953C12.9984 19.3453 14.0063 20.5078 14.7703 20.3203C15.3797 20.1703 16.5797 17.0766 15.3469 16.3266C14.9344 16.0734 14.4281 15.9469 13.9078 15.9141Z" fill="#9725EA"/>
</svg>
