<svg width="24" height="24" viewBox="0 0 24 24" fill="none" xmlns="http://www.w3.org/2000/svg">
<g clip-path="url(#clip0_162_198)">
<path d="M2.11969 0.638719L0.669373 2.08894C2.52497 3.02634 4.098 4.36012 5.07712 6.52444L2.28375 9.31645L3.9082 10.919C5.7892 7.98239 8.09062 5.64159 10.9336 3.83934L9.34715 2.25291L6.55518 5.04492C4.66312 4.26539 3.22097 2.73605 2.11964 0.638672L2.11969 0.638719ZM20.3217 0.763219C21.1383 3.10453 19.4299 5.43806 16.8311 3.17292C18.0374 5.80805 15.4839 7.4505 13.7358 5.91661C14.5597 8.59148 12.9538 9.55575 11.3028 9.36628L8.46975 6.8145C7.9192 7.31588 7.39528 7.84725 6.89508 8.40966L9.52298 11.335C9.67331 12.9756 8.69723 14.535 6.06454 13.7154C7.59858 15.4827 5.95603 18.0638 3.32086 16.8443C5.58586 19.4716 3.25364 21.1985 0.912654 20.373C5.4645 23.6351 10.5148 24.551 13.9175 20.2032C10.2757 19.4166 10.1208 16.2611 11.4492 13.4795L16.4194 19.0108L18.2373 19.7359C17.7205 20.0584 17.1271 20.3058 16.4575 20.4756L23.1826 23.0816L20.5767 16.3564C20.4004 17.0515 20.1411 17.663 19.8002 18.1935L19.0693 16.3609L13.4692 11.3175C16.2288 9.9713 19.3722 10.1131 20.1533 13.7697C24.4538 10.3671 23.5482 5.3153 20.3218 0.763266L20.3217 0.763219Z" fill="#9AAAB4"/>
</g>
<defs>
<clipPath id="clip0_162_198">
<rect width="24" height="24" fill="white"/>
</clipPath>
</defs>
</svg>
