<svg width="24" height="24" viewBox="0 0 24 24" fill="none" xmlns="http://www.w3.org/2000/svg">
<path d="M12.6167 0.952223C11.0076 0.969427 9.40226 1.27796 7.81497 1.82818L6.03372 9.20658H9.28418C8.58058 10.9333 9.05168 12.8804 9.78513 14.2163L10.6596 11.7277L11.6294 14.4347L12.6299 11.9415L13.6303 14.4669L14.6309 11.7276L15.5054 14.2471C16.3323 12.7467 16.4833 10.7071 16.0065 9.20668H19.2261L17.4434 1.82818C15.8386 1.2091 14.2257 0.93502 12.6167 0.952223ZM8.30276 5.16947C9.71041 5.47004 10.8666 6.1058 11.5122 7.42247L7.74166 7.76091L8.30276 5.16947ZM16.9731 5.16947L17.5342 7.76082L13.7622 7.42247C14.468 6.19829 15.6334 5.56974 16.9731 5.16947ZM12.6358 8.20182L12.9843 8.66166L14.1504 10.2013L13.4516 10.73L12.6356 9.6519L11.8197 10.73L11.121 10.2013L12.287 8.66171L12.6357 8.20186L12.6358 8.20182ZM7.42235 12.3531C7.0135 12.3749 6.69129 12.6955 6.65477 13.0913C6.29538 13.8061 6.01952 14.6007 5.84468 15.4161C4.8678 14.7426 3.7158 14.6042 2.44765 14.8214C2.33655 14.5039 2.03561 14.275 1.68011 14.275C1.2303 14.275 0.865662 14.6398 0.865662 15.0895C0.865662 15.5393 1.23026 15.9039 1.68007 15.9039C1.89335 15.9039 2.08713 15.8213 2.23226 15.6872C3.30958 16.4367 4.45976 16.6983 5.66885 16.5632C5.56511 17.6734 5.65947 18.7737 5.99697 19.7243C5.99711 19.7283 5.99674 19.7321 5.99697 19.736C6.02088 20.1852 6.40479 20.5306 6.85385 20.5066C7.30305 20.4826 7.64688 20.0988 7.62293 19.6496C7.59902 19.2006 7.21661 18.8552 6.76746 18.8791C6.73526 18.8809 6.70324 18.8856 6.6723 18.8909C6.56388 18.3951 6.51902 17.8488 6.53168 17.2824C11.4089 18.0142 19.71 18.6574 23.1224 15.0954L19.4252 14.7586C15.5575 15.5114 11.1323 15.5383 6.83196 15.1467C6.93874 14.7325 7.07233 14.3286 7.2304 13.9471C7.31805 13.9734 7.41208 13.986 7.50874 13.9808C7.9578 13.9569 8.30168 13.573 8.27777 13.1239C8.25386 12.6747 7.87146 12.3294 7.4223 12.3533L7.42235 12.3531ZM9.76024 18.4674C8.87149 19.5842 8.91499 20.5993 8.90327 21.8175C11.527 22.8291 13.9661 22.7506 16.4223 21.8175C16.547 20.4948 16.2866 19.4254 15.4994 18.4967L14.7026 21.0441L13.6068 18.6124L12.6299 21.4205L11.6528 18.6432L10.4913 21.044L9.76024 18.4673V18.4674Z" fill="#CC342D"/>
</svg>
