<svg width="24" height="24" viewBox="0 0 24 24" fill="none" xmlns="http://www.w3.org/2000/svg">
<path d="M7.34533 1.21082L4.17189 1.84597C4.16721 4.59144 4.09033 7.4391 2.1333 9.68441C4.89377 11.5547 8.85939 12.2203 11.5781 11.6625V7.02191L5.07658 4.13535L5.42346 3.36472L12 6.29066L18.5766 3.36472L18.9235 4.13535L12.4219 7.02191V11.6625C15.1406 12.2203 19.1063 11.5547 21.8672 9.68441C19.9078 7.4391 19.8328 4.59144 19.8281 1.84597L16.6547 1.21082C16.05 1.86144 15.6891 2.53035 15.1125 3.11066C14.4797 3.73972 13.5703 4.17191 12 4.17191C10.4297 4.17191 9.52033 3.73972 8.88752 3.11066C8.31096 2.53035 7.95002 1.86144 7.34533 1.21082ZM2.52564 10.9172C3.56064 13.1719 4.5033 15.7782 4.81408 18.4125L7.86096 19.4813C8.05783 17.011 9.18283 14.6063 10.8469 12.6328C8.26408 12.9282 5.09533 12.361 2.52564 10.9172ZM21.4735 10.9172C18.9047 12.361 15.736 12.9282 13.1531 12.6328C14.8172 14.6063 15.9422 17.011 16.1391 19.4813L19.1953 18.4078C19.5047 15.7453 20.4422 13.1672 21.4735 10.9172ZM12 12.6094C10.1016 14.6297 8.82658 17.1985 8.68596 19.7672L11.5781 20.7797V15.75H12.4219V20.7797L15.3141 19.7672C15.1688 17.1985 13.8985 14.6297 12 12.6094ZM19.111 19.3313L13.9219 21.1453V22.0266L19.0875 19.9594C19.0922 19.7485 19.1016 19.5422 19.111 19.3313ZM4.89377 19.336C4.90783 19.5469 4.91252 19.7532 4.91721 19.9641L10.0781 22.0266V21.15L4.89377 19.336ZM13.0781 21.4407L12 21.8203L10.9219 21.4453V22.3641L12 22.7953L13.0781 22.3641V21.4407Z" fill="#C9C9C9"/>
</svg>
