<svg width="24" height="24" viewBox="0 0 24 24" fill="none" xmlns="http://www.w3.org/2000/svg">
<path d="M9 0.827393L9.75 2.42114H14.25L15 0.827393H9ZM8.57812 3.31177V5.74692H10.0781V6.78755C9.17344 6.36567 8.08125 6.40317 7.5 6.40317C5.13281 6.40317 3.65156 7.42974 2.83594 8.65317C2.02031 9.87661 1.82812 11.2547 1.82812 12.075C1.82812 14.536 3.6375 16.5 5.73281 18.2157C7.82813 19.9266 10.2656 21.436 11.7 22.875L12 23.1704L12.3 22.875C13.7344 21.436 16.1719 19.9266 18.2672 18.2157C20.3625 16.5 22.1719 14.536 22.1719 12.075C22.1719 11.2547 21.9797 9.87661 21.1641 8.65317C20.3484 7.42974 18.8672 6.40317 16.5 6.40317C15.9188 6.40317 14.8266 6.36567 13.9219 6.78755V5.74692H15.4219V3.31177H8.57812ZM9.42188 4.15552H14.5781V4.90317H9.42188V4.15552ZM10.9219 5.74692H13.0781V8.59224L13.8 7.87505C14.3484 7.32192 15.75 7.24692 16.5 7.24692C18.6328 7.24692 19.7766 8.09536 20.4609 9.12192C21.1453 10.1485 21.3281 11.3954 21.3281 12.075C21.3281 14.1141 19.7625 15.9047 17.7328 17.5594C15.825 19.125 13.5609 20.536 12 21.9985C10.4391 20.536 8.175 19.125 6.26719 17.5594C4.2375 15.9047 2.67188 14.1141 2.67188 12.075C2.67188 11.3954 2.85469 10.1485 3.53906 9.12192C4.22344 8.09536 5.36719 7.24692 7.5 7.24692C8.25 7.24692 9.65156 7.32192 10.2 7.87505L10.9219 8.59224V5.74692ZM9 9.07505C6 9.07505 5.25 11.325 5.25 12.825C5.25 15.825 9 17.325 12 19.575C15 17.325 18.75 15.825 18.75 12.825C18.75 11.325 18 9.07505 15 9.07505C13.5 9.07505 12.75 9.07505 12 11.325C11.25 9.07505 10.5 9.07505 9 9.07505ZM14.8922 9.75942C15.0609 9.75474 15.1688 9.77349 15.1641 9.78755C14.3906 10.1297 13.575 10.9313 13.0734 11.7422C13.0734 11.7422 12.9234 10.9125 13.5375 10.2469C13.8844 9.86724 14.5266 9.76411 14.8922 9.75942ZM9 9.82505C7.875 10.8329 7.06406 12.5532 6.7875 14.0625C6.7875 14.0625 5.87344 12.9516 6.42656 11.5594C6.88594 10.411 8.775 9.84849 9 9.82505Z" fill="#C9C9C9"/>
</svg>
