<svg width="24" height="24" viewBox="0 0 24 24" fill="none" xmlns="http://www.w3.org/2000/svg">
<path d="M6.07763 0.993211L1.77826 3.73971C1.9442 4.9962 2.19615 6.24973 2.53421 7.49562L11.2838 1.85599L10.3799 1.27005C8.91367 1.22857 7.4641 1.13688 6.07763 0.993211ZM17.959 1.02251C16.0601 1.20884 14.0452 1.30085 12.0308 1.2964L21.6226 7.51765C21.9557 6.30406 22.2079 5.0839 22.377 3.8599L17.959 1.02251ZM12.0908 2.37893L2.78757 8.37452C3.16374 9.60827 3.62499 10.8334 4.17188 12.0454L15.5742 4.6392L12.0908 2.37893ZM16.3784 5.16068L12.8833 7.43116L19.9745 12.0616C20.5236 10.8521 20.9867 9.62829 21.3662 8.39656L16.3784 5.16077V5.16068ZM12.0805 7.95265L4.54688 12.8467C5.11885 14.0265 5.7722 15.1934 6.50832 16.3418L15.7002 10.317L12.0805 7.9526V7.95265ZM16.5 10.8385L12.8658 13.2217L17.6192 16.3711C18.3608 15.218 19.0205 14.0469 19.5982 12.8614L16.5 10.8385ZM12.0689 13.7432L6.99024 17.0727C7.62606 18.0131 8.31803 18.9406 9.06587 19.853L15.2549 15.8555L12.0689 13.7432H12.0689ZM16.0517 16.3828L12.8672 18.4409L15.0717 19.8648C15.8145 18.9581 16.502 18.037 17.1358 17.1021L16.0517 16.3828ZM12.0689 18.9551L9.63282 20.5299C10.3937 21.4174 11.2085 22.2896 12.0776 23.1446C12.9394 22.2937 13.7481 21.4253 14.5048 20.5416L12.063 18.9654L12.0689 18.9551V18.9551Z" fill="#039BE5"/>
</svg>
