<svg width="24" height="24" viewBox="0 0 24 24" fill="none" xmlns="http://www.w3.org/2000/svg">
<path d="M12.1709 1.57433C10.0757 2.04851 7.64389 2.79659 5.51558 3.58648C3.52044 4.32692 1.77866 5.1238 0.930454 5.6593L2.27267 7.53458C4.00545 6.64855 7.6678 5.00778 12.1345 3.69022C12.1399 3.11333 12.1545 2.44095 12.1709 1.57428L12.1709 1.57433ZM12.1355 4.57067C7.9377 5.8287 4.45677 7.37736 2.76945 8.22856L3.30209 8.9728C6.34686 7.7134 9.39538 6.49719 12.1729 5.51037C12.1525 5.20297 12.1408 4.89833 12.1355 4.57067ZM12.6446 6.23867C9.6696 7.289 6.35459 8.61734 3.05895 9.98628L3.056 9.97934C2.00858 10.5019 1.35327 11.0678 0.848938 11.6458C0.997719 11.6549 1.16225 11.6581 1.35533 11.644C1.89552 11.6043 2.58767 11.4784 3.37011 11.2835C4.93513 10.8937 6.86511 10.2306 8.78009 9.46133C10.695 8.69201 12.5978 7.81583 14.1164 7.0033C15.0734 6.49133 15.8553 5.99455 16.4029 5.58917C15.126 5.5843 13.7111 5.88476 12.6446 6.23867ZM13.5058 8.26836C13.2492 8.39643 12.9916 8.52232 12.7329 8.64603C13.0439 8.83709 13.2711 9.16015 13.4063 9.51753C13.5912 10.006 13.6356 10.5907 13.5266 11.1957C13.4176 11.8007 13.1738 12.323 12.8334 12.6978C12.493 13.0727 12.0162 13.3181 11.508 13.2082C10.9998 13.0983 10.6439 12.6727 10.4591 12.1843C10.2742 11.6959 10.2297 11.1111 10.3387 10.5061C10.3979 10.1771 10.4975 9.87275 10.6303 9.60303C10.1213 9.82343 9.60933 10.0372 9.09467 10.2442C8.41755 10.5165 7.7354 10.7761 7.04858 11.0229C7.5808 12.0037 8.3292 12.8078 9.45636 13.3811L9.8862 13.5997L9.61236 13.9967C9.21364 14.5748 9.29441 15.4322 9.70025 16.058C10.1061 16.6837 10.7255 17.0375 11.5115 16.7327C14.2975 15.6524 16.3972 15.3822 18.3447 15.743C19.9778 16.0456 21.4913 16.793 23.2119 17.7966C22.6295 16.4721 21.6197 15.1068 20.3653 13.9431C18.7722 12.4654 16.8009 11.3139 14.9123 10.9126L14.6481 10.8565L14.5886 10.5932C14.551 10.4273 14.2135 9.20037 13.5058 8.26841V8.26836ZM12.1217 9.31705C11.9905 9.3222 11.831 9.3988 11.6572 9.59014C11.4433 9.82564 11.2479 10.217 11.1636 10.6846C11.0795 11.1521 11.1245 11.5956 11.2407 11.9025C11.3568 12.2093 11.5133 12.3463 11.6577 12.3776C11.802 12.4088 11.9943 12.3473 12.2082 12.1118C12.422 11.8763 12.6176 11.4847 12.7018 11.0172C12.786 10.5498 12.7409 10.1062 12.6247 9.79934C12.5086 9.49245 12.3521 9.35548 12.2077 9.32426C12.1795 9.31823 12.1506 9.3158 12.1217 9.31705ZM6.24289 11.3045C5.38667 11.5951 4.56383 11.8461 3.80633 12.0427C3.61039 13.1682 4.26275 14.6417 4.7218 15.3795C6.41736 16.601 7.9182 17.8204 10.6388 18.6617L10.4096 17.5918C9.82053 17.4242 9.31813 17.0193 8.99239 16.517C8.50569 15.7665 8.33356 14.771 8.69942 13.9197C7.57817 13.2556 6.79147 12.3468 6.24289 11.3045ZM3.59211 15.6208C3.16878 16.2417 2.46852 16.5065 1.81916 16.6414C2.53564 17.8318 4.14139 18.9807 6.18866 20.0212C8.12483 21.0052 10.425 21.9042 12.6675 22.7681C12.11 21.8596 11.7278 20.855 11.622 19.7995C7.58309 18.8363 5.75806 17.1142 3.59211 15.6208ZM2.29386 18.5069C1.68992 19.8855 1.25623 21.3611 1.18494 22.8281H10.4938C8.86138 22.1824 7.24597 21.5051 5.80634 20.7734C4.43759 20.0778 3.21641 19.3395 2.29386 18.5069Z" fill="#008335"/>
</svg>
