<svg width="24" height="24" viewBox="0 0 24 24" fill="none" xmlns="http://www.w3.org/2000/svg">
<path d="M10.7297 0.93283C10.5 0.952986 10.0219 1.14189 9.48749 1.45127C8.28749 2.17924 7.24218 2.99392 6.20155 3.82783C6.58124 3.73127 6.95624 3.63517 7.35936 3.51658C8.58749 3.15142 9.71249 2.80596 10.9547 2.60439L10.8234 3.20814C10.4719 4.85158 9.6703 6.51564 9.05624 8.07189C9.90936 8.48439 11.0859 8.67658 12.1734 8.67189C13.2187 8.6672 14.1937 8.44689 14.6484 8.24064C14.4281 5.88752 14.7047 3.47486 13.5281 1.69971C12.8531 0.916892 11.6297 0.856893 10.7297 0.93283ZM8.64843 6.82502C6.76874 6.99377 4.79061 7.07814 3.11811 7.89845C2.59218 8.16564 2.32686 8.44689 2.25374 8.62971C2.18108 8.81252 2.19796 8.94846 2.44499 9.21564C2.69202 9.47814 3.18889 9.7922 3.93374 10.0781C5.42343 10.65 7.88436 11.1235 11.3156 11.2875C12.8156 11.3625 15.0469 11.1891 17.1094 10.6875C19.125 10.2047 20.9625 9.3797 21.8203 8.30627C19.8797 7.38752 17.3719 7.19533 15.4172 7.01252C15.4406 7.61721 15.4734 8.10939 15.5344 8.6672L15.3469 8.81252C14.6766 9.31408 13.5094 9.50627 12.1781 9.51564C10.8469 9.52033 9.38905 9.29064 8.30155 8.62502C7.70155 8.31095 8.45624 7.28908 8.64843 6.82502ZM18.2344 11.2641C18.0891 11.3063 17.9437 11.3438 17.7984 11.386C17.8922 11.5781 17.9437 11.7891 17.9437 12.0047C17.9437 12.3516 17.8172 12.6563 17.6156 12.9094C18.0984 12.961 18.5672 13.0125 19.0312 13.0688C18.7406 12.436 18.4594 11.8031 18.2344 11.2641ZM5.47499 11.4141C4.60968 14.5594 2.96014 17.3906 1.13202 20.6063C2.0353 20.175 2.75764 19.4719 3.3778 18.6328C4.35139 17.2735 4.98749 15.8156 5.72811 14.3578L6.49218 14.7188C5.6578 16.2797 5.02499 17.8078 4.11983 19.05C3.25593 20.3672 2.26405 21.6516 1.15921 22.7672C1.48124 22.725 1.80186 22.6735 2.12108 22.6172C3.43077 21.3094 4.83749 20.025 5.18905 18.8719L5.9953 19.1203C5.64374 20.2688 4.71093 21.2672 3.72514 22.2328C4.25389 22.0735 4.73905 21.886 5.11874 21.6938C5.84061 21.1078 6.22968 20.3672 6.4828 19.5656C6.81093 18.5438 6.87655 17.4281 7.06405 16.4906L7.89374 16.6594C7.72499 17.4985 7.65468 18.6656 7.28905 19.8235C7.10155 20.4188 6.8203 21.0141 6.4078 21.5531C7.0453 22.0781 7.76249 22.5563 8.26405 23.0906C8.82186 20.5594 8.89686 18.0938 8.9203 15.3844L9.76405 15.3891C9.74999 17.0485 9.71718 18.6375 9.56718 20.2172C9.89061 20.9531 10.125 21.5297 10.3266 22.0828L10.8234 12.1078C8.6578 11.986 6.88124 11.7422 5.47499 11.4141ZM16.9266 11.5969C16.7062 11.6485 16.4812 11.6906 16.2609 11.7328C16.3828 12.0656 16.0312 12.3469 15.7875 12.3516C15.5531 12.3516 15.3516 12.211 15.2906 12.0141C15.2953 12.3656 15.6609 12.7078 16.1953 12.7078C16.7344 12.7078 17.1 12.361 17.1 12.0047C17.0812 11.8453 17.0156 11.6953 16.9266 11.5969ZM14.4469 12.0047C14.2687 12.0281 14.0906 12.0422 13.9172 12.061C13.9453 12.1688 13.9594 12.286 13.9594 12.4031C13.9594 13.3125 13.0969 13.9688 12.1359 13.9688C11.9437 13.9688 11.7562 13.9406 11.5781 13.8938L11.4984 15.5719C11.8359 16.186 12.0844 16.5891 12.3562 16.8422C12.7172 17.1703 13.1765 17.3391 14.1937 17.4703C14.4937 17.5219 14.7281 17.8781 14.775 18.1219C14.8219 18.3656 14.7844 18.6094 14.6766 18.8438C13.8141 20.0719 12.4266 19.4156 11.3297 18.9422L11.2922 19.6969C11.9812 20.9531 12.5906 22.111 14.2453 22.8891C14.7797 23.0813 15.4312 23.1469 15.9891 22.9313L15.0187 19.0688L15.3 18.9141C16.1859 18.4172 16.6453 17.7797 17.0297 17.0578C15.825 16.9266 14.7328 16.6078 13.5609 16.5328C13.1062 16.5047 12.7781 16.2 12.5859 15.8766C12.3937 15.5485 12.2953 15.1781 12.3656 14.8031C12.4266 14.1656 14.1609 14.3016 14.4281 14.3063L15.2062 15.0047C14.4328 14.986 13.8844 14.9906 13.2141 15.1875C13.2656 15.3797 13.3922 15.6703 13.6125 15.6938C15.9187 15.8391 17.5641 16.6969 19.9875 15.9891C20.7422 15.8156 22.2984 16.7297 22.8703 17.086C22.7578 16.1203 22.5375 15.1641 21.9562 14.5406C19.8984 13.8938 17.7469 13.8328 16.1953 13.5469C14.6391 13.261 14.4469 12.6422 14.4469 12.0047ZM13.0312 12.1219C12.8625 12.1313 12.6984 12.136 12.5391 12.1406C12.6703 12.4735 12.3141 12.7594 12.0656 12.7641C11.8922 12.7641 11.7375 12.6844 11.6484 12.5672L11.625 13.0125C11.7703 13.0828 11.9437 13.125 12.1359 13.125C12.7219 13.125 13.1156 12.7547 13.1156 12.4031C13.1156 12.3047 13.0875 12.211 13.0312 12.1219ZM11.4234 17.0625L11.3766 18C11.9344 18.3141 12.5719 18.5391 13.3266 18.7266C13.6172 18.7688 14.0109 18.6235 13.9453 18.286C12.9516 18.1453 12.2906 17.925 11.7844 17.461C11.6531 17.3391 11.5359 17.2078 11.4234 17.0625ZM18.675 17.086C18.4266 17.1047 18.1828 17.1141 17.9484 17.1141C17.9109 17.1844 17.8781 17.2547 17.8406 17.3297C17.4469 18.0938 16.9172 18.8766 15.9891 19.4766L16.3453 20.8922C16.8937 21.45 17.4422 22.0172 18.0047 22.5094C17.7562 21.7828 17.6672 21.1078 17.6437 20.1422L17.6156 19.0547L18.3656 19.8375C18.6891 20.175 19.2984 20.475 19.9781 20.6531C20.3484 20.7516 20.7375 20.8125 21.1125 20.8406C20.1609 19.6735 19.2984 18.3328 18.675 17.086Z" fill="#F6298C"/>
</svg>
